# xmcd
#
# Track frame offsets:
#	150
#	19891
#	35557
#	55611
#	68769
#	93212
#	111385
#	127051
#	157763
#	176877
#
# Disc length: 2600 seconds
#
# Revision: 1
# Processed by: cddbd v1.5.1PL0 Copyright (c) Steve Scherf et al.
# Submitted via: audiograbber 1.83.01
#
DISCID=810a260a
DTITLE=Bad News Blues Band - Bad News Indeed....
DYEAR=2002
DGENRE=Blues
TTITLE0=One More And I Gotta Go
TTITLE1=She's Bad News
TTITLE2=Cruisin' For A Bluesin'
TTITLE3=Hard Liquor
TTITLE4=Be My Shotgun
TTITLE5=Leavin Fast
TTITLE6=Fever In The Funkhouse
TTITLE7=Messin' Round
TTITLE8=When You See Me
TTITLE9=Revvitup
EXTD=ARV Records\n9652 E. 33rd Street\nTucson, AZ 85748\n1-520-290-9256\n\nwww.
EXTD=badnewsbluesband.com\n\nMike Blommer - Guitar - Vocals\nAlex Flores - Teno
EXTD=r Sax - Vocals\nMike "Bad Dad" Blommer - Trumpet\nJeff Masterson - Bass - 
EXTD=Vocals\nChip Ritter - Drums
EXTT0=
EXTT1=
EXTT2=
EXTT3=
EXTT4=
EXTT5=
EXTT6=
EXTT7=
EXTT8=
EXTT9=
PLAYORDER=
